<svg viewBox="0 0 100 100" xmlns="http://www.w3.org/2000/svg" fill="none" role="img" aria-label="Programming: Everyday Algorithms">

  <g stroke="#52717a" stroke-width="2">
    <path d="M8 24 L8 8 L24 8"></path>
    <path d="M76 8 L92 8 L92 24"></path>
    <path d="M92 76 L92 92 L76 92"></path>
    <path d="M24 92 L8 92 L8 76"></path>
  </g>
  <path d="M22 76 L80 76" stroke="#e4b169" stroke-width="1.8" opacity="0.525"></path>
  <g stroke="#e4b169" stroke-width="1.8" opacity="0.825">
    <path d="M31 48 L31 64"></path>
    <path d="M27 48 L35 48"></path>
    <path d="M27 64 L35 64"></path>
  </g>
  <circle cx="31" cy="56" r="2.8" fill="#e4b169" opacity="1"></circle>
  <g stroke="#e4b169" stroke-width="1.8" opacity="0.825">
    <path d="M44 40 L44 60"></path>
    <path d="M40 40 L48 40"></path>
    <path d="M40 60 L48 60"></path>
  </g>
  <circle cx="44" cy="50" r="2.8" fill="#e4b169" opacity="1"></circle>
  <g stroke="#e4b169" stroke-width="1.8" opacity="0.825">
    <path d="M70 52 L70 68"></path>
    <path d="M66 52 L74 52"></path>
    <path d="M66 68 L74 68"></path>
  </g>
  <circle cx="70" cy="60" r="2.8" fill="#e4b169" opacity="1"></circle>
  <g stroke="#52717a" stroke-width="2.2">
    <path d="M57 34 L57 56"></path>
    <path d="M53 34 L61 34"></path>
    <path d="M53 56 L61 56"></path>
  </g>
  <circle cx="57" cy="45" r="4.4" fill="#52717a"></circle>
</svg>